<svg width="1200" height="675" viewBox="0 0 1200 675" fill="none" xmlns="http://www.w3.org/2000/svg">
  <rect width="1200" height="675" fill="#F8FAFC"/>
  <rect x="72" y="72" width="1056" height="531" rx="12" fill="#FFFFFF" stroke="#CBD5E1" stroke-width="3"/>
  <!-- Logo circle (red gear representation) -->
  <circle cx="600" cy="155" r="36" fill="#991B1B"/>
  <circle cx="600" cy="155" r="28" fill="#FFFFFF"/>
  <circle cx="600" cy="155" r="20" fill="#991B1B"/>
  <!-- University name -->
  <rect x="400" y="210" width="400" height="14" rx="7" fill="#1E293B"/>
  <!-- Course number and title -->
  <rect x="520" y="250" width="160" height="12" rx="6" fill="#334155"/>
  <rect x="440" y="275" width="320" height="16" rx="8" fill="#1E293B"/>
  <!-- Assignment details -->
  <rect x="170" y="340" width="180" height="10" rx="5" fill="#64748B"/>
  <rect x="170" y="365" width="280" height="10" rx="5" fill="#64748B"/>
  <!-- Split table box -->
  <rect x="170" y="420" width="860" height="145" rx="6" fill="none" stroke="#475569" stroke-width="2"/>
  <line x1="590" y1="420" x2="590" y2="565" stroke="#475569" stroke-width="2"/>
  <!-- Left column (dates) -->
  <rect x="195" y="445" width="150" height="8" rx="4" fill="#64748B"/>
  <rect x="195" y="530" width="150" height="8" rx="4" fill="#64748B"/>
  <!-- Right column (student info) -->
  <rect x="615" y="440" width="220" height="8" rx="4" fill="#64748B"/>
  <rect x="615" y="470" width="180" height="8" rx="4" fill="#64748B"/>
  <rect x="615" y="500" width="140" height="8" rx="4" fill="#64748B"/>
  <rect x="615" y="530" width="100" height="8" rx="4" fill="#64748B"/>
</svg>
